<svg version="1.0" xmlns="http://www.w3.org/2000/svg"
 width="6251.000000pt" height="9720.000000pt" viewBox="0 0 6251.000000 9720.000000"
 preserveAspectRatio="xMidYMid meet">
<g transform="translate(0.000000,9720.000000) scale(0.100000,-0.100000)"
fill="#000000" stroke="none">
<path d="M17223 97168 c-7 -15 -28 -67 -48 -115 -54 -132 -166 -351 -251 -493
-172 -287 -357 -523 -609 -776 -179 -179 -293 -278 -490 -426 -553 -415 -1266
-750 -2060 -967 -281 -77 -738 -173 -977 -207 l-48 -6 0 -1069 0 -1069 -1490
0 -1489 0 -11 -42 c-78 -326 -216 -763 -335 -1063 -391 -990 -986 -1964 -1687
-2762 -54 -61 -98 -114 -98 -117 0 -3 1150 -6 2555 -6 l2555 0 2 -11452 3
-11453 39 105 c242 653 662 1291 1136 1727 782 720 1796 1139 3115 1286 l200
22 3 9883 2 9882 930 0 930 0 4 23 c2 12 20 123 40 247 176 1098 660 2084
1490 3030 116 133 509 527 614 615 39 33 71 63 71 68 1 4 -917 7 -2039 7
l-2040 0 -2 2578 c-2 2026 -6 2571 -15 2550z"/>
<path d="M24125 92578 c0 -362 -24 -570 -100 -884 -250 -1021 -966 -1901
-1920 -2360 -274 -132 -485 -204 -807 -278 l-28 -6 -3 -8363 c-2 -6186 -6
-8423 -15 -8597 -58 -1163 -113 -1819 -218 -2605 -319 -2382 -933 -4326 -2046
-6470 -153 -295 -200 -383 -325 -615 -65 -119 -18 -48 119 180 1126 1875 2357
3376 3633 4431 990 818 2074 1419 3168 1755 l187 58 0 8785 0 8786 87 75 c708
611 1365 1435 1815 2275 l65 120 1466 3 1467 2 -3 -7432 c-3 -6926 -4 -7445
-20 -7613 -62 -647 -148 -1086 -311 -1580 -236 -712 -591 -1344 -1137 -2021
-558 -692 -1019 -1127 -1623 -1533 -365 -245 -768 -463 -1174 -637 l-163 -69
2216 -3 2215 -2 -3 -7438 c-3 -8222 3 -7448 -63 -8042 -97 -879 -287 -1644
-575 -2326 -82 -193 -281 -588 -393 -779 -183 -312 -450 -697 -745 -1075 -75
-96 -142 -182 -149 -192 -8 -11 30 6 90 38 382 207 878 424 1313 573 692 239
1555 410 2250 446 61 3 138 8 173 11 l62 6 0 2004 0 2004 305 0 305 0 0 -2310
0 -2310 -313 0 c-557 0 -1036 -46 -1560 -150 -1369 -272 -2625 -889 -3707
-1819 -164 -141 -540 -510 -697 -683 -1072 -1186 -1764 -2636 -2007 -4208 -66
-424 -90 -760 -90 -1235 0 -384 8 -559 45 -890 154 -1417 690 -2784 1541
-3930 463 -624 1030 -1194 1653 -1663 1023 -769 2205 -1279 3470 -1497 457
-79 766 -105 1308 -112 l428 -6 -5 -26 c-3 -14 -22 -127 -41 -251 -228 -1436
-513 -3021 -633 -3520 l-27 -115 -313 -3 c-171 -1 -312 0 -312 3 0 3 42 191
94 417 168 735 279 1295 405 2053 42 248 131 819 131 835 0 6 -33 10 -74 10
-100 0 -424 26 -626 51 -426 51 -793 121 -1208 231 -106 28 -194 49 -196 47
-3 -2 -16 -94 -31 -204 -49 -370 -133 -902 -206 -1304 l-12 -65 -31 40 c-186
234 -553 620 -826 867 -85 77 -154 145 -152 151 2 6 78 199 168 430 91 230
163 419 162 420 -2 1 -64 29 -138 61 -780 342 -1577 853 -2219 1421 -149 133
-158 140 -164 134 -2 -3 -141 -192 -307 -420 -167 -228 -316 -431 -331 -451
l-29 -36 -97 29 c-464 138 -999 239 -1554 293 l-67 6 -39 152 c-22 84 -93 360
-159 614 -83 321 -123 463 -132 463 -8 0 -656 -81 -1441 -180 -786 -99 -1433
-180 -1440 -180 -8 0 -11 -137 -11 -527 0 -291 -3 -578 -7 -640 l-6 -111 -106
-38 c-449 -157 -991 -413 -1399 -661 l-72 -44 -492 405 -491 404 -566 -531
c-311 -293 -789 -741 -1061 -997 -272 -255 -496 -469 -498 -475 -1 -5 163
-239 366 -520 l368 -510 -122 -185 c-213 -324 -350 -565 -529 -933 l-106 -217
-4270 0 -4269 0 0 3320 0 3320 3900 0 c2145 0 3900 -3 3900 -6 0 -13 -134
-250 -259 -459 -307 -514 -694 -1049 -1102 -1525 -394 -459 -929 -987 -1429
-1411 -838 -710 -1851 -1387 -2962 -1980 -86 -46 -156 -84 -155 -85 3 -3 428
62 692 106 2678 444 4681 1140 6270 2178 1224 800 2234 1841 2991 3084 l59 98
2892 0 2892 0 -98 141 c-665 962 -1148 2114 -1366 3259 -14 74 -28 145 -31
158 l-4 22 -1441 0 -1441 0 6 22 c17 64 120 539 155 718 85 439 174 1019 226
1470 14 124 28 240 31 257 l5 33 1196 2 1197 3 22 165 c154 1151 555 2292
1156 3288 37 63 68 116 68 118 0 2 -2069 4 -4599 4 l-4598 0 62 168 c230 617
465 1417 600 2044 l17 78 4491 2 4491 3 1173 1989 c645 1094 1173 1991 1173
1993 0 2 -1092 2 -2426 1 l-2427 -3 -713 -1140 -713 -1140 -7083 -5 -7083 -5
-12 -135 c-41 -478 -151 -948 -330 -1405 -109 -279 -323 -685 -496 -945 -312
-468 -774 -944 -1230 -1269 l-87 -63 0 -7029 0 -7029 -305 0 -305 0 0 7194 0
7193 122 79 c1026 659 1727 1684 1958 2860 59 303 71 429 77 807 l5 347 7208
0 c6851 0 7208 1 7222 18 11 12 994 1578 1042 1660 6 9 -1801 12 -9020 12
l-9027 0 39 -42 c130 -142 297 -390 408 -607 157 -308 252 -602 307 -961 20
-126 23 -183 23 -435 0 -246 -3 -310 -21 -425 -32 -203 -69 -358 -128 -535
-258 -775 -807 -1408 -1543 -1777 l-142 -71 0 -8373 c0 -5662 -3 -8422 -10
-8526 -46 -673 -163 -1259 -357 -1782 -517 -1394 -1551 -2372 -3133 -2963
l-182 -68 14207 -5 14208 -5 -156 -310 c-241 -478 -435 -826 -672 -1210 -339
-547 -527 -806 -1099 -1520 -863 -1075 -1239 -1509 -1770 -2041 -333 -333
-484 -471 -743 -679 -997 -800 -2031 -1190 -3348 -1265 -104 -6 -212 -12 -240
-13 -27 -2 1059 -4 2414 -5 l2464 -2 191 126 c1799 1193 3256 2826 4421 4954
132 242 462 903 574 1150 233 514 476 1110 655 1610 59 162 111 305 116 317
l10 23 319 0 320 0 -65 -191 c-491 -1442 -1164 -2882 -1896 -4061 -862 -1389
-1889 -2573 -3063 -3534 -94 -76 -244 -195 -333 -264 l-164 -125 1274 -3 1273
-3 185 188 c613 625 1228 1356 1720 2048 295 414 681 1023 926 1457 l49 88
3258 0 3257 0 0 -1297 0 -1298 -124 -88 c-393 -279 -807 -697 -1094 -1107
-172 -246 -370 -611 -480 -885 l-48 -120 -3542 -3 -3542 -2 0 -1995 0 -1995
3744 0 3745 0 57 -87 c155 -239 361 -491 589 -718 188 -189 352 -330 559 -479
l136 -99 0 -1758 0 -1759 -6768 0 -6769 0 -28 -103 c-154 -559 -452 -1194
-812 -1735 -413 -621 -975 -1225 -1613 -1737 -157 -126 -375 -289 -488 -365
-28 -19 -52 -38 -52 -42 0 -5 3719 -8 8265 -8 l8265 0 0 -1920 c0 -1056 3
-1920 8 -1920 4 0 23 24 42 52 62 92 300 409 403 536 256 318 443 528 731 820
740 751 1555 1366 2516 1901 201 112 698 361 910 456 l155 70 2945 5 2944 5
366 612 365 613 473 0 c459 0 472 -1 463 -19 -6 -10 -168 -283 -361 -605 -192
-323 -350 -591 -350 -597 0 -5 265 -9 690 -9 l690 0 28 43 c15 24 180 300 367
615 l340 571 473 1 c259 0 472 -2 472 -4 0 -2 -162 -275 -360 -607 -198 -331
-360 -606 -360 -611 0 -4 577 -7 1282 -6 l1281 3 54 130 c623 1512 2073 2614
3783 2874 455 69 1028 78 1311 21 330 -68 645 -265 845 -529 116 -154 208
-370 246 -576 19 -104 16 -390 -5 -498 -99 -499 -448 -900 -913 -1052 -156
-51 -355 -70 -538 -51 l-78 8 6 31 c49 241 21 471 -84 682 -142 286 -404 487
-720 551 -115 23 -342 15 -455 -15 -306 -84 -569 -314 -685 -599 -61 -150 -75
-230 -74 -427 1 -247 29 -403 115 -620 114 -292 344 -563 649 -765 212 -140
536 -273 812 -334 408 -91 937 -94 1358 -10 499 100 917 320 1260 664 151 151
230 247 360 442 323 484 472 1031 439 1602 -31 520 -207 998 -521 1419 -120
159 -356 395 -515 515 -375 280 -808 453 -1272 507 -110 13 -1183 15 -8498 15
l-8373 0 0 1754 0 1754 103 73 c218 154 366 278 561 469 247 241 464 502 631
758 l60 92 3285 0 3285 0 0 357 c0 373 4 433 51 723 180 1128 840 2173 1793
2840 l92 65 -4049 3 -4049 2 -43 108 c-55 140 -190 418 -269 557 -331 578
-784 1077 -1328 1463 l-123 87 0 1293 0 1292 4873 0 4872 0 62 183 c227 671
579 1297 1012 1800 l101 117 -6495 0 -6495 0 -2 3206 -3 3206 -120 -99 c-497
-409 -1013 -759 -1615 -1096 -302 -169 -977 -497 -1187 -578 l-23 -9 0 -1370
0 -1370 -2369 0 -2369 0 24 78 c41 128 148 554 244 972 413 1785 756 2817
1292 3890 483 968 1050 1766 1743 2454 415 411 833 743 1390 1103 151 98 612
532 878 826 1727 1912 2483 4458 2077 6992 -352 2193 -1569 4164 -3384 5480
l-90 65 1737 0 1737 0 31 -61 31 -62 -184 -186 c-100 -102 -336 -341 -524
-531 l-341 -345 731 -942 c450 -580 736 -940 744 -938 7 3 297 172 643 375
l630 371 117 -109 c204 -190 395 -353 630 -536 61 -48 112 -89 112 -92 0 -2
-117 -311 -259 -687 -143 -375 -261 -688 -263 -695 -3 -12 2090 -1143 2103
-1136 4 2 199 273 434 603 l428 598 206 -68 c228 -77 508 -159 732 -214 l147
-37 6 -71 c3 -40 22 -373 42 -742 20 -368 38 -672 40 -674 2 -2 538 -42 1191
-90 1054 -77 1189 -85 1194 -71 4 8 71 332 149 720 79 388 146 708 149 712 3
4 83 14 176 23 233 21 523 60 750 100 105 19 193 31 196 27 4 -4 158 -303 344
-664 l337 -657 81 29 c1151 414 2160 780 2164 784 3 3 -66 329 -154 725 l-159
720 155 87 c207 115 428 252 636 391 145 98 172 113 188 103 10 -6 273 -216
584 -467 l566 -455 101 100 c55 54 387 373 736 707 349 335 692 664 761 731
l126 123 -435 588 c-239 323 -436 592 -439 599 -2 6 31 58 75 115 125 165 307
428 436 633 118 186 120 188 150 183 17 -4 342 -89 723 -190 l692 -183 450
1105 c354 867 448 1108 438 1117 -6 6 -297 172 -645 369 -446 252 -631 362
-628 372 32 82 157 747 187 992 7 57 18 105 24 107 5 2 334 56 730 120 396 63
723 119 727 122 7 7 -66 2379 -73 2386 -2 2 -317 34 -699 70 -382 37 -713 69
-736 72 l-40 6 -38 188 c-45 228 -121 541 -181 748 -25 85 -43 157 -40 161 2
5 282 190 621 411 540 354 615 405 610 424 -4 17 -1022 2126 -1030 2133 -1 2
-318 -103 -704 -231 l-702 -234 -23 31 c-13 18 -57 79 -97 137 -134 190 -351
468 -503 644 -37 43 -66 85 -63 92 3 7 181 285 396 619 215 334 393 612 396
619 6 15 -1796 1541 -1819 1541 -8 0 -254 -220 -548 -489 -294 -269 -538 -490
-544 -492 -6 -3 -75 34 -154 81 -203 122 -443 252 -657 357 -125 62 -184 96
-184 107 0 9 50 339 111 734 61 395 109 720 106 724 -7 7 -2266 663 -2283 663
-6 0 -15 -10 -21 -22 -6 -13 -137 -315 -293 -673 -155 -357 -284 -652 -286
-653 -1 -2 -85 5 -186 17 -253 29 -517 49 -750 57 -109 4 -198 9 -198 12 0 15
-384 1419 -390 1425 -4 5 -484 -57 -1067 -137 -583 -80 -1067 -146 -1076 -146
-12 0 13 49 85 168 241 401 560 1014 747 1439 464 1053 799 2181 986 3313 19
118 37 230 40 248 l6 32 3557 0 3557 0 230 183 c623 492 973 796 1346 1167
780 777 1268 1509 1522 2285 46 139 97 324 97 351 0 12 -1350 14 -9195 14
l-9195 0 -5 -22 c-3 -13 -14 -66 -25 -118 -137 -630 -342 -1219 -606 -1741
-433 -856 -1029 -1530 -1799 -2035 l-120 -79 3293 -3 c1810 -1 3292 -5 3292
-8 0 -12 -71 -330 -96 -427 -551 -2193 -1816 -4056 -3504 -5163 -703 -461
-1418 -764 -2221 -944 l-96 -21 -7 -172 c-13 -336 -45 -614 -101 -892 -52
-255 -38 -229 -128 -233 l-77 -3 0 -240 0 -239 -61 -138 c-205 -465 -473 -846
-873 -1248 -297 -296 -583 -530 -956 -780 l-162 -109 1623 -3 c1291 -2 1626 1
1634 10 7 7 200 329 431 716 l418 702 474 0 c447 0 472 -1 463 -17 -5 -10
-197 -331 -425 -713 l-415 -695 687 -3 c378 -1 692 0 698 2 6 2 201 324 435
715 l424 711 473 0 473 0 -15 -27 c-8 -16 -199 -336 -424 -713 l-410 -685
3522 -5 c3838 -6 3575 -2 3965 -60 1371 -204 2630 -973 3423 -2090 632 -891
938 -1910 915 -3050 -6 -292 -22 -485 -63 -745 -223 -1410 -1003 -2701 -2154
-3566 -470 -353 -1033 -646 -1590 -827 -561 -183 -1091 -266 -1705 -266 -617
0 -1132 80 -1705 266 -2076 676 -3572 2531 -3781 4693 l-12 125 -4389 0 -4388
0 0 6889 c0 6871 0 6889 20 7042 386 2910 1705 4911 3950 5993 96 46 236 109
310 141 74 31 139 61 144 66 6 5 -896 9 -2207 9 l-2217 0 0 8765 c0 6295 3
8765 11 8765 6 0 75 31 153 69 1012 495 1755 1462 1996 2599 69 325 101 698
84 987 l-9 160 -6640 3 -6640 2 0 -282z m9805 -6795 c227 -54 438 -224 539
-436 54 -112 71 -182 78 -318 12 -238 -58 -424 -221 -598 -84 -88 -188 -159
-294 -200 -102 -39 -174 -51 -302 -51 -537 0 -924 519 -775 1036 44 150 115
265 229 372 119 111 286 190 446 212 82 11 215 3 300 -17z m-19 -3367 c306
-65 560 -322 623 -628 42 -205 2 -433 -106 -600 -86 -133 -173 -214 -312 -289
l-76 -41 0 -4946 c0 -2721 -3 -4964 -7 -4985 -5 -35 -28 -57 -299 -288 -161
-137 -295 -249 -298 -249 -3 0 -6 2358 -6 5240 0 4231 -2 5240 -13 5240 -33 0
-177 99 -252 174 -139 137 -215 296 -238 497 -31 275 102 573 328 734 81 58
200 114 289 136 89 22 275 24 367 5z m12928 -21138 l1 -398 -415 0 -415 0 147
183 c179 221 364 470 538 721 l130 187 6 -148 c4 -81 7 -327 8 -545z m-13549
-4603 l0 -1005 -305 0 -305 0 0 805 0 805 298 199 c163 110 300 200 305 200 4
1 7 -451 7 -1004z m0 -2055 l0 -310 -305 0 -305 0 0 310 0 310 305 0 305 0 0
-310z m-20850 -7412 c0 -373 -31 -1056 -65 -1468 -204 -2420 -861 -4176 -1980
-5295 -242 -242 -525 -469 -797 -640 -43 -27 -77 -50 -75 -51 2 -2 91 6 198
16 1630 167 2996 708 4116 1631 l132 109 1685 0 1685 0 3 -97 c5 -152 -9 -807
-21 -1013 -25 -404 -68 -842 -119 -1199 l-27 -186 -4492 -3 -4493 -2 0 3102 0
3101 108 111 c413 424 815 1068 1032 1652 34 90 98 303 114 377 l6 27 1495 0
1495 0 0 -172z m21510 -420 c0 -31 109 -849 114 -857 3 -5 23 -12 43 -15 78
-14 352 -86 473 -124 209 -66 394 -136 626 -238 6 -3 148 139 314 315 167 176
307 318 313 314 7 -4 1588 -1151 1625 -1178 2 -2 -92 -176 -208 -389 l-211
-386 28 -33 c288 -339 463 -579 639 -874 33 -57 53 -81 64 -78 69 20 843 156
849 149 14 -14 623 -1895 618 -1908 -3 -6 -181 -94 -397 -196 l-392 -185 6
-65 c34 -347 34 -747 0 -1090 l-6 -65 392 -185 c216 -102 394 -190 397 -196 5
-13 -604 -1894 -618 -1908 -5 -6 -167 20 -426 69 -230 43 -423 80 -428 82 -6
2 -32 -34 -59 -79 -77 -131 -246 -383 -336 -503 -70 -94 -139 -178 -303 -372
l-28 -33 211 -386 c116 -213 209 -388 208 -389 -39 -29 -1617 -1173 -1624
-1178 -7 -4 -131 120 -314 314 -166 176 -308 318 -314 315 -6 -2 -52 -22 -102
-44 -144 -63 -398 -156 -561 -206 -153 -45 -429 -116 -457 -116 -8 0 -18 -5
-21 -10 -6 -9 -115 -824 -115 -857 0 -10 -209 -13 -1013 -13 l-1013 0 -53 418
c-29 229 -56 425 -60 436 -5 14 -52 29 -219 72 -249 62 -567 167 -772 254 -80
34 -150 64 -156 66 -5 3 -146 -140 -313 -316 -207 -219 -306 -318 -314 -312
-7 5 -373 271 -814 591 -442 321 -803 588 -803 594 0 7 92 180 205 386 113
206 205 378 205 382 0 3 -24 33 -52 66 -207 231 -438 549 -602 824 l-57 96
-67 -12 c-575 -109 -793 -147 -800 -139 -17 19 -624 1906 -615 1914 4 4 183
90 397 191 l388 184 -7 85 c-32 404 -32 659 1 1055 l6 80 -392 185 c-216 102
-394 190 -396 195 -2 6 135 438 305 960 208 640 314 951 323 953 13 3 798
-141 839 -154 12 -3 31 21 73 90 146 245 335 511 511 720 55 65 111 131 124
147 l23 29 -206 378 c-113 209 -206 384 -206 389 0 6 352 266 783 579 430 312
796 578 813 591 l32 24 303 -321 c166 -176 303 -320 304 -320 1 0 44 18 96 41
254 111 553 212 837 283 101 25 192 46 202 46 10 0 20 9 23 23 3 12 29 210 58
440 l53 417 1013 0 c804 0 1013 -3 1013 -12z m-9360 -15483 c532 -54 1011
-163 1485 -340 1082 -404 2029 -1130 2692 -2065 l75 -105 -4798 -3 c-2638 -1
-4799 0 -4802 2 -6 6 147 218 254 352 151 189 253 304 439 489 453 453 930
796 1505 1084 696 347 1421 544 2215 601 179 13 753 4 935 -15z m-18995 -1080
c66 -19 161 -81 208 -136 21 -24 53 -73 70 -109 31 -63 32 -70 32 -190 0 -122
-1 -127 -33 -192 -142 -288 -510 -356 -734 -135 -224 222 -165 594 117 733
111 55 216 64 340 29z m55 -1666 c120 -57 198 -145 241 -271 17 -52 20 -80 17
-163 -3 -87 -8 -109 -35 -168 -136 -289 -514 -358 -738 -133 -204 204 -167
550 75 706 88 56 143 71 260 68 97 -3 111 -6 180 -39z m26724 -991 c-54 -199
-155 -559 -192 -683 l-38 -130 -321 -3 -320 -2 44 142 c24 79 82 278 129 443
47 165 87 306 89 313 3 9 76 12 319 12 l315 0 -25 -92z m10259 -10021 c336
-256 591 -547 805 -917 33 -58 68 -122 78 -143 l18 -38 -2009 -2009 -2009
-2009 -112 58 c-290 152 -596 390 -811 630 -98 110 -243 293 -243 308 0 6
4180 4193 4186 4193 1 0 44 -33 97 -73z m-4333 -787 c0 -23 -4 -30 -20 -30
-20 0 -20 1 -5 30 9 17 18 30 20 30 3 0 5 -13 5 -30z"/>
<path d="M32595 45019 c-770 -61 -1499 -309 -2133 -725 -1099 -722 -1830
-1866 -2016 -3154 -33 -231 -40 -343 -40 -645 0 -384 17 -562 89 -921 173
-854 609 -1659 1242 -2290 775 -773 1791 -1236 2888 -1315 200 -14 622 -6 805
16 881 105 1664 430 2337 970 912 731 1505 1775 1663 2922 55 405 55 831 0
1236 -135 983 -585 1883 -1295 2592 -776 774 -1771 1229 -2874 1315 -153 11
-516 11 -666 -1z m795 -1034 c389 -54 726 -155 1058 -316 385 -186 676 -392
973 -688 515 -516 849 -1152 979 -1867 66 -360 68 -851 5 -1217 -102 -590
-364 -1159 -752 -1636 -111 -136 -348 -373 -484 -484 -517 -421 -1107 -677
-1780 -772 -156 -23 -589 -31 -761 -15 -1127 102 -2126 729 -2710 1700 -253
421 -406 861 -475 1370 -14 106 -18 200 -18 435 0 313 10 436 56 670 245 1244
1133 2257 2339 2667 229 78 534 143 780 167 146 15 653 6 790 -14z"/>
<path d="M7434 92013 c-3 -16 -26 -109 -51 -208 -212 -843 -634 -1627 -1270
-2358 -140 -161 -534 -554 -703 -701 -234 -205 -559 -460 -787 -620 -46 -32
-85 -62 -88 -67 -4 -5 397 -9 1029 -9 l1036 0 77 69 c106 93 401 393 513 521
835 951 1503 2169 1813 3308 l26 92 -795 0 -794 0 -6 -27z"/>
<path d="M10691 87522 c-29 -70 -97 -217 -151 -327 -490 -1000 -1156 -1709
-2026 -2157 -470 -242 -978 -403 -1529 -483 -99 -15 -190 -29 -202 -31 l-23
-4 0 -2838 c0 -1768 -4 -2890 -10 -2977 -31 -431 -122 -774 -301 -1127 -167
-329 -388 -598 -658 -801 -88 -66 -322 -210 -363 -223 -10 -3 -18 -8 -18 -12
0 -4 38 -26 83 -50 650 -339 1101 -1014 1227 -1838 38 -251 40 -367 40 -2462
0 -2191 0 -2174 -50 -2437 -171 -883 -830 -1597 -1669 -1805 -245 -61 -477
-77 -667 -45 -661 112 -1182 680 -1288 1406 -18 122 -21 374 -6 499 34 276
140 553 304 795 81 119 284 322 402 402 93 64 231 137 321 171 l51 19 7 -86
c43 -543 409 -959 925 -1051 93 -17 281 -14 375 5 482 100 846 501 895 987 25
256 -60 546 -241 819 -84 126 -272 314 -399 398 -324 216 -705 313 -1170 298
-368 -12 -666 -85 -986 -242 -694 -340 -1160 -980 -1275 -1750 -39 -263 -35
-639 11 -965 173 -1237 929 -2329 2055 -2966 1238 -700 2793 -744 4080 -114
682 334 1264 846 1668 1467 383 588 594 1225 637 1923 8 124 10 2717 8 8952
l-3 8778 -54 -128z"/>
<path d="M18100 82792 l0 -1887 1125 -1125 1125 -1125 0 1895 0 1895 -1118
1118 c-614 614 -1120 1117 -1125 1117 -4 0 -7 -849 -7 -1888z"/>
<path d="M36955 81793 c-704 -51 -1283 -97 -1286 -101 -7 -8 5 -3909 12 -3916
2 -2 60 11 129 31 1025 283 2126 354 3185 202 3127 -446 5693 -2753 6472
-5816 l46 -183 1148 0 c914 0 1149 3 1149 13 0 15 -95 479 -114 559 l-14 57
697 397 c383 218 697 397 699 399 3 3 -968 2368 -976 2377 -4 4 -351 -85 -772
-198 -420 -112 -767 -204 -770 -203 -3 0 -52 77 -110 171 -125 204 -310 476
-465 684 l-113 152 474 643 c260 354 474 647 474 651 0 8 -1851 1778 -1860
1778 -3 0 -283 -225 -624 -500 -553 -448 -620 -499 -637 -488 -234 166 -674
442 -921 579 -68 38 -96 59 -93 69 17 62 338 1551 334 1554 -8 9 -2420 869
-2423 865 -2 -2 -164 -319 -361 -704 -196 -385 -360 -703 -363 -707 -4 -3 -52
2 -107 13 -279 53 -654 106 -943 133 -84 7 -155 16 -157 18 -5 4 -325 1544
-325 1560 0 13 -48 10 -1385 -89z"/>
<path d="M18100 77485 l0 -1890 1125 -1125 1125 -1125 0 1890 0 1890 -1125
1125 -1125 1125 0 -1890z"/>
<path d="M59966 71502 c-2 -4 -18 -70 -36 -147 -87 -391 -205 -718 -396 -1105
-441 -887 -1147 -1723 -2204 -2610 -74 -62 -136 -117 -138 -121 -2 -5 346 -9
776 -9 l779 0 57 39 c289 196 692 566 947 871 572 683 980 1526 1238 2555 68
272 81 343 81 442 l0 93 -549 0 c-303 0 -552 -4 -555 -8z"/>
<path d="M25067 54333 c-3 -5 -300 -509 -661 -1121 -361 -612 -656 -1117 -656
-1122 0 -6 942 -10 2550 -10 l2550 0 24 38 c36 56 1306 2211 1306 2217 0 8
-5108 6 -5113 -2z"/>
<path d="M43225 32383 c-317 -540 -772 -1140 -1248 -1646 l-117 -124 2 -759 3
-758 728 667 727 667 0 1045 c0 575 -3 1045 -7 1045 -5 0 -44 -62 -88 -137z"/>
<path d="M42582 28788 l-722 -662 0 -594 0 -594 59 54 c32 29 361 330 730 668
l671 615 0 588 c0 323 -3 587 -8 587 -4 0 -332 -298 -730 -662z"/>
<path d="M42583 26637 l-722 -662 0 -867 -1 -868 6529 0 6529 0 63 47 c107 78
336 226 478 307 711 408 1577 690 2553 830 207 30 518 66 571 66 26 0 37 4 37
15 0 13 -857 15 -7650 15 l-7650 0 0 890 c0 490 -3 890 -7 889 -5 0 -333 -298
-730 -662z"/>
<path d="M17056 17394 c-407 -29 -742 -57 -746 -61 -4 -4 -19 -226 -34 -493
-15 -267 -30 -488 -34 -491 -4 -3 -52 -16 -107 -28 -115 -27 -436 -118 -542
-155 l-72 -25 -287 405 c-158 222 -291 404 -295 404 -6 0 -1393 -735 -1407
-745 -2 -2 76 -211 173 -466 l175 -464 -32 -25 c-131 -100 -341 -274 -436
-359 l-112 -102 -426 252 c-296 175 -431 249 -440 243 -17 -12 -974 -1241
-974 -1251 0 -4 156 -164 347 -355 l346 -346 -37 -69 c-74 -137 -185 -361
-236 -478 -29 -66 -55 -123 -59 -127 -3 -4 -220 18 -481 48 -261 30 -484 53
-495 52 -17 -3 -41 -89 -211 -773 -134 -542 -187 -772 -179 -777 6 -4 213 -85
459 -181 246 -97 449 -177 451 -179 1 -1 -1 -41 -6 -88 -5 -47 -12 -216 -15
-376 l-7 -291 -474 -148 c-260 -82 -473 -154 -473 -159 0 -14 273 -1560 276
-1565 2 -2 202 6 446 18 244 12 466 21 494 21 l51 0 48 -132 c44 -122 147
-375 208 -509 l26 -56 -356 -314 c-195 -173 -364 -321 -375 -330 -19 -14 -3
-39 423 -670 243 -359 445 -658 449 -662 4 -5 206 91 450 213 l442 221 187
-188 c103 -103 226 -221 273 -262 l85 -74 -65 -141 c-328 -717 -350 -766 -338
-775 19 -16 1330 -833 1340 -834 4 -1 149 169 321 378 171 209 316 379 321
378 5 -1 81 -31 169 -67 88 -36 244 -93 347 -127 l186 -62 -5 -498 -6 -497 29
-6 c56 -11 1555 -218 1558 -215 1 2 61 218 132 479 l130 475 198 7 c109 4 271
14 360 23 89 9 169 17 179 18 14 2 57 -89 214 -453 108 -250 197 -456 198
-457 1 -2 1397 397 1518 433 9 3 17 15 17 28 0 12 -31 227 -70 476 -38 249
-70 461 -70 469 0 11 61 45 178 103 97 47 245 125 327 173 83 47 153 87 156
88 3 1 169 -148 368 -331 199 -183 368 -332 375 -330 17 4 1215 1011 1216
1021 0 5 -116 189 -258 410 -142 221 -262 408 -266 415 -5 8 14 37 51 80 108
122 254 310 392 501 l17 25 465 -157 c255 -87 469 -157 475 -157 15 0 708
1430 698 1439 -8 7 -276 184 -740 488 l-82 53 25 77 c33 106 98 356 133 515
16 71 31 132 34 136 3 3 224 26 490 51 266 25 488 49 492 54 9 9 64 1579 55
1589 -3 4 -215 41 -471 83 -256 41 -475 77 -487 80 -18 4 -23 12 -23 38 0 53
-47 347 -85 534 -20 96 -35 176 -33 178 2 1 197 111 434 245 l432 242 -139
342 c-76 187 -210 519 -298 736 -94 233 -165 396 -174 398 -8 2 -220 -51 -472
-118 -252 -66 -464 -120 -470 -120 -7 0 -31 31 -54 70 -60 100 -227 350 -305
455 -36 49 -66 93 -66 97 0 4 130 183 288 396 159 214 291 393 295 398 5 9
-1120 1104 -1143 1112 -5 2 -177 -131 -382 -295 -205 -165 -378 -302 -385
-306 -8 -5 -81 37 -185 106 -145 96 -428 268 -458 279 -5 2 40 221 100 488 60
267 105 488 102 492 -4 3 -342 128 -752 276 l-745 270 -27 -51 c-15 -29 -116
-225 -226 -437 -194 -374 -200 -385 -228 -384 -16 0 -112 15 -213 32 -101 18
-257 40 -347 49 l-164 18 -6 30 c-3 16 -47 235 -98 485 l-92 455 -54 1 c-30 1
-388 -22 -794 -52z m1044 -2329 c487 -53 936 -170 1378 -357 1502 -635 2601
-2005 2886 -3598 62 -347 80 -592 73 -975 -7 -395 -43 -675 -132 -1042 -397
-1633 -1624 -2953 -3225 -3471 -313 -101 -631 -168 -990 -209 -219 -25 -792
-25 -1005 0 -800 93 -1504 347 -2155 775 -539 354 -1013 822 -1367 1352 -449
670 -711 1397 -799 2220 -26 232 -26 730 -1 960 109 999 476 1867 1117 2640
130 157 438 465 595 596 802 665 1733 1043 2767 1124 169 13 688 4 858 -15z"/>
</g>
</svg>
