<?xml version="1.0" standalone="no"?><!DOCTYPE svg PUBLIC "-//W3C//DTD SVG 1.1//EN" "http://www.w3.org/Graphics/SVG/1.1/DTD/svg11.dtd"><svg t="1710657624004" class="icon" viewBox="0 0 1024 1024" version="1.1" xmlns="http://www.w3.org/2000/svg" p-id="6943" xmlns:xlink="http://www.w3.org/1999/xlink" width="200" height="200"><path d="M598.232 832.332c-9.846 0-19.117-3.827-26.104-10.777L437.929 688.253l-12.283 7.916a36.95 36.95 0 0 1-19.967 5.846c-12.696 0-24.35-6.324-31.173-16.914-5.371-8.297-7.187-18.18-5.112-27.821 2.081-9.687 7.827-17.986 16.178-23.37l37.303-24.037a37.098 37.098 0 0 1 20.043-5.884c9.843 0 19.109 3.824 26.091 10.772L598.21 743.112l298.688-296.858c7.007-6.944 16.286-10.769 26.126-10.769 9.927 0 19.241 3.876 26.229 10.917 14.377 14.475 14.323 37.956-0.121 52.339L624.339 821.558c-6.972 6.947-16.245 10.774-26.107 10.774z" p-id="6944"></path><path d="M133.752 918.937c-38.46 0-69.752-31.292-69.752-69.752V174.816c0-38.46 31.292-69.752 69.752-69.752h578.026c38.46 0 69.752 31.292 69.752 69.752v256.899c0 20.755-16.885 37.64-37.64 37.64s-37.64-16.885-37.64-37.64V180.343H139.28v663.314h331.655c20.752 0 37.637 16.885 37.637 37.64s-16.885 37.64-37.637 37.64H133.752z" p-id="6945"></path><path d="M294.314 319.848c-20.752 0-37.637-16.885-37.637-37.64s16.885-37.64 37.637-37.64h256.902c20.752 0 37.637 16.885 37.637 37.64s-16.885 37.64-37.637 37.64H294.314z" p-id="6946"></path></svg>