<svg t="1704796278414" class="icon" viewBox="0 0 1024 1024" version="1.1" xmlns="http://www.w3.org/2000/svg" p-id="6018" width="200" height="200"><path d="M609.745455 4.654545L27.927273 339.781818c-13.963636 4.654545-18.618182 18.618182-18.618182 27.927273v288.581818c0 13.963636 4.654545 23.272727 18.618182 32.581818l581.818182 330.472728c4.654545 4.654545 9.309091 4.654545 18.618181 4.654545 4.654545 0 13.963636 0 18.618182-4.654545 9.309091-4.654545 18.618182-18.618182 18.618182-32.581819V37.236364c0-13.963636-4.654545-23.272727-18.618182-32.581819-13.963636-4.654545-27.927273-4.654545-37.236363 0zM195.490909 707.490909l-116.363636-65.163636V390.981818l116.363636-69.818182 60.509091-32.581818 335.127273-190.836363v828.50909L269.963636 744.727273l-74.472727-37.236364M740.072727 339.781818c27.927273 55.854545 41.890909 116.363636 41.890909 181.527273 0 55.854545-9.309091 111.709091-32.581818 162.909091l65.163637 27.927273c23.272727-60.509091 37.236364-125.672727 37.236363-190.836364 0-74.472727-13.963636-144.290909-46.545454-209.454546l-65.163637 27.927273z" fill="#707070" p-id="6019"></path><path d="M907.636364 125.672727l-60.509091 37.236364c65.163636 107.054545 97.745455 232.727273 97.745454 358.4 0 116.363636-27.927273 237.381818-88.436363 339.781818l60.509091 32.581818c60.509091-111.709091 93.090909-242.036364 93.090909-372.363636 4.654545-139.636364-32.581818-274.618182-102.4-395.636364z" fill="#707070" p-id="6020"></path></svg>